<svg width="24" height="24" viewBox="0 0 24 24" fill="none" xmlns="http://www.w3.org/2000/svg">
<path d="M19.089 14.4383V18.8783C19.0888 19.5065 18.8391 20.1089 18.3949 20.5531C17.9507 20.9974 17.3483 21.247 16.72 21.2473H5.11904C4.8068 21.2472 4.49765 21.1853 4.20938 21.0654C3.9211 20.9454 3.65937 20.7696 3.43923 20.5482C3.21909 20.3268 3.04488 20.064 2.92661 19.775C2.80833 19.486 2.74833 19.1765 2.75004 18.8643V7.27629C2.74818 6.96454 2.80822 6.65552 2.92666 6.36714C3.04511 6.07876 3.21961 5.81675 3.44006 5.59631C3.6605 5.37586 3.92251 5.20136 4.21089 5.08291C4.49927 4.96447 4.80829 4.90443 5.12004 4.90629H9.55904" stroke="#595F7A" stroke-width="1.5" stroke-linecap="round" stroke-linejoin="round"/>
<path d="M19.0909 8.9957L15.0059 4.9097M6.83594 15.8037V13.6387C6.83794 13.2817 6.97994 12.9387 7.23094 12.6857L16.7629 3.1537C16.8894 3.02581 17.04 2.92427 17.206 2.85498C17.372 2.78568 17.5501 2.75 17.7299 2.75C17.9098 2.75 18.0879 2.78568 18.2539 2.85498C18.4199 2.92427 18.5705 3.02581 18.6969 3.1537L20.8479 5.3047C20.9758 5.43118 21.0774 5.58177 21.1467 5.74776C21.216 5.91374 21.2516 6.09183 21.2516 6.2717C21.2516 6.45157 21.216 6.62965 21.1467 6.79564C21.0774 6.96163 20.9758 7.11222 20.8479 7.2387L11.3159 16.7707C11.0625 17.0224 10.7202 17.1643 10.3629 17.1657H8.19794C8.019 17.166 7.84178 17.1309 7.67641 17.0626C7.51105 16.9942 7.3608 16.8939 7.23427 16.7674C7.10775 16.6408 7.00743 16.4906 6.93908 16.3252C6.87073 16.1599 6.83568 15.9826 6.83594 15.8037Z" stroke="#595F7A" stroke-width="1.5" stroke-linecap="round" stroke-linejoin="round"/>
</svg>
