<svg width="40" height="40" viewBox="0 0 40 40" fill="none" xmlns="http://www.w3.org/2000/svg">
<path d="M29.6906 13.8058C29.1504 11.6463 27.9041 9.72911 26.1498 8.35878C24.3955 6.98844 22.2336 6.24348 20.0075 6.24219C17.7814 6.2409 15.6187 6.98335 13.8628 8.35164C12.1069 9.71994 10.8584 11.6356 10.3156 13.7946C7.75541 14.0348 5.38616 15.2521 3.69999 17.1936C2.01382 19.135 1.14036 21.6514 1.26103 24.2201C1.38169 26.7887 2.48722 29.2121 4.34797 30.987C6.20872 32.7618 8.68166 33.7516 11.2531 33.7508H15.0031C15.3346 33.7508 15.6526 33.6191 15.887 33.3847C16.1214 33.1503 16.2531 32.8323 16.2531 32.5008C16.2531 32.1693 16.1214 31.8513 15.887 31.6169C15.6526 31.3825 15.3346 31.2508 15.0031 31.2508H11.2531C10.2682 31.2537 9.29238 31.0625 8.38133 30.6883C7.47029 30.314 6.64189 29.764 5.94342 29.0696C4.53279 27.6672 3.73705 25.7618 3.73125 23.7727C3.72545 21.7836 4.51006 19.8736 5.91248 18.463C7.3149 17.0524 9.22025 16.2566 11.2094 16.2508C11.5301 16.275 11.8484 16.1791 12.1025 15.9819C12.3565 15.7846 12.5283 15.5 12.5844 15.1833C12.8389 13.3984 13.7289 11.7652 15.0908 10.5837C16.4527 9.40225 18.1951 8.75177 19.9981 8.75177C21.8011 8.75177 23.5436 9.40225 24.9055 10.5837C26.2674 11.7652 27.1573 13.3984 27.4119 15.1833C27.4773 15.489 27.6467 15.7626 27.8913 15.9573C28.1359 16.1519 28.4405 16.2557 28.7531 16.2508C30.7423 16.2508 32.6499 17.041 34.0564 18.4475C35.463 19.854 36.2531 21.7617 36.2531 23.7508C36.2531 25.7399 35.463 27.6476 34.0564 29.0541C32.6499 30.4606 30.7423 31.2508 28.7531 31.2508H25.0031C24.6716 31.2508 24.3537 31.3825 24.1192 31.6169C23.8848 31.8513 23.7531 32.1693 23.7531 32.5008C23.7531 32.8323 23.8848 33.1503 24.1192 33.3847C24.3537 33.6191 24.6716 33.7508 25.0031 33.7508H28.7531C31.3058 33.7241 33.7516 32.7222 35.5893 30.9503C37.4271 29.1785 38.5176 26.7709 38.6374 24.2209C38.7573 21.6709 37.8974 19.1716 36.234 17.2352C34.5705 15.2988 32.2295 14.0719 29.6906 13.8058Z" fill="#10B981"/>
<path d="M25.3665 24.6335C25.6023 24.8612 25.918 24.9872 26.2458 24.9843C26.5735 24.9815 26.887 24.85 27.1188 24.6183C27.3505 24.3865 27.482 24.073 27.4849 23.7452C27.4877 23.4175 27.3617 23.1017 27.134 22.866L20.884 16.616C20.6496 16.3816 20.3317 16.25 20.0003 16.25C19.6688 16.25 19.3509 16.3816 19.1165 16.616L12.8665 22.866C12.6388 23.1017 12.5128 23.4175 12.5157 23.7452C12.5185 24.073 12.65 24.3865 12.8817 24.6183C13.1135 24.85 13.427 24.9815 13.7548 24.9843C14.0825 24.9872 14.3983 24.8612 14.634 24.6335L18.7503 20.5172V36.2497C18.7503 36.5813 18.882 36.8992 19.1164 37.1336C19.3508 37.368 19.6687 37.4997 20.0003 37.4997C20.3318 37.4997 20.6497 37.368 20.8841 37.1336C21.1186 36.8992 21.2503 36.5813 21.2503 36.2497V20.5172L25.3665 24.6335Z" fill="#10B981"/>
</svg>
